<svg width="120" height="120" viewBox="0 0 120 120" fill="none" xmlns="http://www.w3.org/2000/svg">
<mask id="mask0_844_2712" style="mask-type:alpha" maskUnits="userSpaceOnUse" x="0" y="0" width="120" height="120">
<rect width="120" height="120" fill="#D9D9D9"/>
</mask>
<g mask="url(#mask0_844_2712)">
<path d="M60 107C58.8267 107 57.6921 106.774 56.5963 106.323C55.5004 105.87 54.5004 105.218 53.5963 104.365L15.635 66.4038C14.7825 65.4996 14.13 64.4996 13.6775 63.4038C13.2258 62.3079 13 61.1733 13 60C13 58.8267 13.2258 57.6792 13.6775 56.5575C14.13 55.4358 14.7825 54.4488 15.635 53.5963L53.5963 15.635C54.5004 14.7308 55.5004 14.0658 56.5963 13.64C57.6921 13.2133 58.8267 13 60 13C61.1733 13 62.3208 13.2133 63.4425 13.64C64.5642 14.0658 65.5513 14.7308 66.4038 15.635L104.365 53.5963C105.269 54.4488 105.934 55.4358 106.36 56.5575C106.787 57.6792 107 58.8267 107 60C107 61.1733 106.787 62.3079 106.36 63.4038C105.934 64.4996 105.269 65.4996 104.365 66.4038L66.4038 104.365C65.5513 105.218 64.5642 105.87 63.4425 106.323C62.3208 106.774 61.1733 107 60 107ZM61.1063 99.0188L99.0188 61.1063C99.2754 60.8496 99.4037 60.4808 99.4037 60C99.4037 59.5192 99.2754 59.1504 99.0188 58.8938L61.1063 20.9812C60.8496 20.7246 60.4808 20.5963 60 20.5963C59.5192 20.5963 59.1504 20.7246 58.8938 20.9812L20.9813 58.8938C20.7246 59.1504 20.5963 59.5192 20.5963 60C20.5963 60.4808 20.7246 60.8496 20.9813 61.1063L58.8938 99.0188C59.1504 99.2754 59.5192 99.4037 60 99.4037C60.4808 99.4037 60.8496 99.2754 61.1063 99.0188ZM56.25 65.4325H63.75V37.3562H56.25V65.4325ZM60 78.51C61.1283 78.51 62.0833 78.1188 62.865 77.3363C63.6475 76.5546 64.0388 75.5996 64.0388 74.4713C64.0388 73.3429 63.6475 72.3879 62.865 71.6063C62.0833 70.8238 61.1283 70.4325 60 70.4325C58.8717 70.4325 57.9167 70.8238 57.135 71.6063C56.3525 72.3879 55.9613 73.3429 55.9613 74.4713C55.9613 75.5996 56.3525 76.5546 57.135 77.3363C57.9167 78.1188 58.8717 78.51 60 78.51Z" fill="#FF424E"/>
</g>
</svg>
