<svg width="60" height="60" viewBox="0 0 60 60" fill="none" xmlns="http://www.w3.org/2000/svg">
<mask id="mask0_529_999" style="mask-type:alpha" maskUnits="userSpaceOnUse" x="0" y="0" width="60" height="60">
<rect width="60" height="60" fill="#D9D9D9"/>
</mask>
<g mask="url(#mask0_529_999)">
<path d="M22.0287 54.6637L17.5672 47.1444L9.09612 45.2887L9.92305 36.5675L4.18268 30.0003L9.92305 23.433L9.09612 14.7119L17.5672 12.8562L22.0287 5.33691L29.9999 8.72154L37.971 5.33691L42.4325 12.8562L50.9036 14.7119L50.0767 23.433L55.8171 30.0003L50.0767 36.5675L50.9036 45.2887L42.4325 47.1444L37.971 54.6636L29.9999 51.279L22.0287 54.6637ZM23.6249 49.8753L29.9999 47.1734L36.4518 49.8753L39.9999 43.8753L46.8749 42.2984L46.2499 35.2503L50.8749 30.0003L46.2499 24.6734L46.8749 17.6253L39.9999 16.1253L36.3749 10.1253L29.9999 12.8272L23.5479 10.1253L19.9999 16.1253L13.1249 17.6253L13.7499 24.6734L9.12487 30.0003L13.7499 35.2503L13.1249 42.3753L19.9999 43.8753L23.6249 49.8753ZM27.3749 38.0099L40.6344 24.7503L37.9999 22.0388L27.3749 32.6638L21.9999 27.3657L19.3653 30.0003L27.3749 38.0099Z" fill="#009DA2"/>
</g>
</svg>
