<svg width="120" height="120" viewBox="0 0 120 120" fill="none" xmlns="http://www.w3.org/2000/svg">
<mask id="mask0_844_2687" style="mask-type:alpha" maskUnits="userSpaceOnUse" x="0" y="0" width="120" height="120">
<rect width="120" height="120" fill="#D9D9D9"/>
</mask>
<g mask="url(#mask0_844_2687)">
<path d="M53 79.2688L86.615 45.6537L81.3463 40.385L53 68.7313L38.75 54.4812L33.4813 59.75L53 79.2688ZM26.5387 102.5C24.0129 102.5 21.875 101.625 20.125 99.875C18.375 98.125 17.5 95.9871 17.5 93.4613V26.5387C17.5 24.0129 18.375 21.875 20.125 20.125C21.875 18.375 24.0129 17.5 26.5387 17.5H93.4613C95.9871 17.5 98.125 18.375 99.875 20.125C101.625 21.875 102.5 24.0129 102.5 26.5387V93.4613C102.5 95.9871 101.625 98.125 99.875 99.875C98.125 101.625 95.9871 102.5 93.4613 102.5H26.5387ZM26.5387 95H93.4613C93.8463 95 94.1988 94.8396 94.5188 94.5188C94.8396 94.1988 95 93.8463 95 93.4613V26.5387C95 26.1537 94.8396 25.8012 94.5188 25.4812C94.1988 25.1604 93.8463 25 93.4613 25H26.5387C26.1537 25 25.8013 25.1604 25.4813 25.4812C25.1604 25.8012 25 26.1537 25 26.5387V93.4613C25 93.8463 25.1604 94.1988 25.4813 94.5188C25.8013 94.8396 26.1537 95 26.5387 95Z" fill="#009DA2"/>
</g>
</svg>
